<?xml version="1.0" encoding="utf-8"?>
<!-- Generator: Adobe Illustrator 22.1.0, SVG Export Plug-In . SVG Version: 6.00 Build 0)  -->
<svg version="1.1" xmlns="http://www.w3.org/2000/svg" xmlns:xlink="http://www.w3.org/1999/xlink" x="0px" y="0px"
	 viewBox="0 0 841.9 595.3" style="enable-background:new 0 0 841.9 595.3;" xml:space="preserve">
<style type="text/css">
	.st0{fill:#FFFFFF;}
	.st1{fill:#D7D9DA;}
	.st2{fill:none;}
	.st3{font-family:'DancingScript-Regular';}
	.st4{font-size:56px;}
</style>
<g id="Calque_1">
	<g id="DARK">
	</g>
	<g id="BiduleFin">
		<path class="st0" d="M662,291.4v5c0,0-21.1-5-28.2,0c0,0-4,9.3-10.9,1.2c0,0-6.2-17.8-11.5-1.5c0,0-7.4,12-14.9,1.5
			c0,0-5.3-28.9-11.5-2c0,0-7.8,27.4-19.2,2.2c0,0-7.1-51.3-13.6-0.1l-4.7,5.3v-23.6c0,0,3.7,5,4.7,0.3c0,0,5.3-21.7,12.4-1.9
			l2.8,11.1c0,0,6.5,32.2,15.2,1.1c0,0,5.9-21.5,14.9-2.6c0,0,4.7,22.6,12.4,2.6c0,0,4.7-11.6,13.3,0c0,0,4.3,13.8,8.7,1.7
			c0,0,5-2.5,14-1.7L662,291.4z"/>
	</g>
	<g id="BiduleDebut">
		<path class="st0" d="M176.5,292.2v-4.9c0,0,6.2,2.4,25.9,1.5c0,0,11.7-16.4,17.7,4.9c0,0,2.9,1.8,4.9,0c0,0,12.1-31.8,22,5.8
			c0,0,2.7,2.9,4.7-5.6c0,0,14.1-50,27.8,14.6c0,0,2.2,6.9,4.7-9.2c0,0,13-82.9,19.6,10.7c0,0,4.4,45.6,7.7,0
			c0,0,15.7-141.9,18.3-0.7c0,0,4.8,91.4,7.9,0l2.6-43.9c0,0,9.5-122.4,11.2-0.6V350c0,0,4.7,58.5,7.7,0l3-134.8
			c0,0,7.7-47.3,11.2-1.2l3,157.9c0,0,0.6,36.1,3.5-0.6l5.4-174.5c0,0,4.5-32.6,8.7-0.8l-1.1,181.7c0,0,0.3,9.7,2.6-0.3
			s1.8-90.4,1.8-90.4l4.5-93.6c0,0,5.8-33.7,5.8-0.8L406,328.8c0,0,0.8,7.9,1.6-20.8l3.7-129.8c0,0,4.7-6.1,4.2,2.8l-0.2,40.3
			l-0.9,158.4c0,0-0.4,2.8,1.2-2.1l1.6-162.5l1.4-37.8c0,0,5.3-7.4,4.8,2.1l-1,196.6c0,0,1.2,0.7,3-7.4l4.4-191.8l8.8,0.5l-5.3,40.6
			L428,374.4c0,0-0.7,44-6,37.6c0,0-1.8-1.8-2.1-6.7c0,0,0-20.1-1.4-0.5c0,0-1.6,19.1-6.5-0.2l-0.2-50.7l0.5-36.2c0,0-1.6-3-1.8,3.9
			c0,0-1.2,83-2.8,85.8c0,0-4.6,6.2-5.1-12.2l1.4-128c0,0,0.9-26.5-2.3,0l-2.3,92.2c0,0-1.4,27.9-3,37.6c0,0-2.8,18.7-6-0.2V215.3
			c0,0-0.2-31.8-1.8-0.5l-5.1,159.3c0,0-6.5,55.1-11.3,0.7l-3-162.3c0,0,0-9.9-2.5,0L363.4,346c0,0-1.6,27.2-3.5,31.1
			c0,0-3.5,13.8-8.3-0.2c0,0-2.3-15.2-2.5-38.3l-0.7-105.1c0,0-0.2-21-2.8-0.2l-6.5,114.4c0,0-3,27.2-9.5,0.9l-4.8-78.8
			c0,0,0-27.4-3.9-0.2l-8.8,62.7c0,0-4.8,15-8.8-0.2l-6.5-51.2c0,0-0.7-21-5.5-0.5c0,0-4.1,26.5-7.1,31.4c0,0-3.2,5.3-7.4,0.2
			l-10-29.4c0,0-2.7-6.1-7,0c0,0-4.9,16.3-7.9,19.2c0,0-3.2,5.9-8.1-0.1c0,0-4.7-11.2-4.9-12.8c0,0-2.1-8.1-7.5,0l-3.9,7.2
			c0,0-3,6.2-10,0.4l-4.4-7.2c0,0-1.8-4.6-4.7-0.1c0,0-2.9,3.7-7,4.3C201.5,293.4,187.2,292.9,176.5,292.2z"/>
		<circle class="st0" cx="439.6" cy="293.9" r="3.9"/>
	</g>
	<g id="disqueFond">
		<path class="st0" d="M435.7,177.3v83.1c0.8-0.1,1.5-0.1,2.3-0.1c18.6,0,33.7,15.1,33.7,33.7s-15.1,33.7-33.7,33.7
			c-0.8,0-1.5,0-2.3-0.1v83.1c64.4,0,116.6-52.2,116.6-116.6S500.1,177.3,435.7,177.3z"/>
	</g>
	<g id="Forme">
		<path class="st1" d="M473.3,308.5c0,0,4.2-11.5,0-26c0,0-3.8-13.2-6-15c0,0,7.7,8.3,9.7,14.1c0,0-8-20.1-13.5-28
			c0,0,7.8,8.4,14.3,21.2c0,0-2.6-10.4-5.6-15.8c0,0,2.4-0.3,14.2,22c0,0-4.5-13.5-6.3-17.3c0,0,8.3,8,8.6,8.9
			c0.4,0.9-0.4-0.9-0.4-0.9l-7-18.6c0,0,0.4-1.2,1.5,0l9.9,14.1c0,0-3.2-9.9-5.1-13.5c0,0,2.1-1.2,7,8.3l8.8,19.7
			c0,0,2.7,6.4,1.6-0.2l-5.3-19.2c0,0-14.8-30.6,1.4-1.8c0,0,10.2,19.4,2.4-0.9l-6.3-16.9c0,0-3-9,1.5-0.9l8.4,11.2
			c0,0,5.4,7.3,0.8-1.6c0,0-8.6-19.9-10.9-24.1c0,0-3.3-7.8,1.4-1.4c0,0,10.7,10.4,20.5,45c0,0,6.3,20.1,1.1-0.9
			c0,0-6.4-23.8-14.9-40.4c0,0-4.3-8.7,1-0.6l20.3,36.7c0,0,3.3,3.7,1.1-1.6l-14.7-33.2c0,0-4.3-7.6,1.4-1.2l14,21.3
			c0,0,3.5,5.5,0.5-1.2l-11.9-23.5c0,0-4.1-8.1,1.5-0.8c0,0,44.4,43.8,14.9,113.4c0,0-5.5,16.1-25,34.8c0,0-6.8,5.7-1-2.1
			c0,0,12.2-16.9,18.5-35.4c0,0,4-11.8-1.9,0.2c0,0-9.9,22.5-18.5,29.3c0,0-2.8,3.1-0.9-1.4l9.3-17.2c0,0,5.4-10.1-1.4-1.1
			c0,0-8.8,15.6-13.8,20c0,0-4.5,6.4-0.9-1.1l10.3-18.7c0,0,2.7-5.5-1.8-0.2l-8.3,10.1c0,0-2.8,2.3-1.4-1.1l7.5-13.7
			c0,0,1.4-4.2-1.6-0.8c0,0-7.9,9.8-10.2,12.6c0,0-3.8,2.6-1.2-1.4l19.1-29.4c0,0,1.5-4.4-2.5-0.3l-12.9,17.7c0,0-1.3,1-0.8-1.5
			l6.9-12.8c0,0,1.6-5.5-2.2-1.1l-14.9,18.2c0,0-1.3,0.6,0-2.7l8.3-18.6c0,0,3.3-9.1-1-1.2c0,0-5.1,11.5-13.3,20.4c0,0-4,4.6-1-1.2
			l6.2-12.5c0,0,1.2-3.9-2.1,0.2l-9.8,12.4c0,0-2.4,2.3-1.1-0.7l8.5-13.9c0,0,2.8-4.5-1.4-0.6l-7,8.5c0,0-1.9,1.7-1.2-0.7l5.1-9
			c0,0,1.3-2.8-1.8-0.6l-4.7,6.1c0,0-3.6,2.9-1.4-0.8l11-15.5c0,0,1-2-1.5-0.8c0,0-5.4,7.3-6.1,7.9c0,0-1.6,1.6-0.6-1L473.3,308.5z"
			/>
	</g>
</g>
<g id="Txt">
	<rect x="339.2" y="420.2" class="st2" width="236.8" height="82.1"/>
	<text transform="matrix(1 0 0 1 339.2001 460.5359)" class="st0 st3 st4">Blindtest</text>
</g>
</svg>
